<?xml version="1.0" standalone="no"?>
<!DOCTYPE svg PUBLIC "-//W3C//DTD SVG 20010904//EN"
 "http://www.w3.org/TR/2001/REC-SVG-20010904/DTD/svg10.dtd">
<svg version="1.0" xmlns="http://www.w3.org/2000/svg"
 width="2000.000000pt" height="2000.000000pt" viewBox="0 0 2000.000000 2000.000000"
 preserveAspectRatio="xMidYMid meet">

<g transform="translate(0.000000,2000.000000) scale(0.100000,-0.100000)"
fill="#000000" stroke="none">
<path d="M9685 17234 c-834 -41 -1601 -204 -2320 -492 -949 -381 -1778 -926
-2489 -1636 -298 -298 -638 -702 -805 -957 l-44 -67 -81 61 c-272 202 -691
309 -1088 277 -396 -33 -734 -190 -1007 -469 -103 -106 -146 -161 -208 -266
-70 -120 -90 -168 -133 -306 -33 -107 -44 -164 -56 -284 -8 -82 -16 -158 -18
-168 -2 -9 0 -66 5 -125 46 -530 272 -879 729 -1125 81 -44 260 -120 345 -147
22 -7 94 -41 160 -74 66 -34 139 -70 162 -79 24 -9 43 -21 43 -26 0 -6 -11
-74 -25 -153 -27 -158 -59 -425 -76 -648 -16 -201 -16 -788 -1 -1000 14 -185
54 -548 72 -639 5 -29 10 -55 10 -57 0 -2 -496 -5 -1103 -6 l-1102 -3 -3 -388
c-2 -305 0 -388 10 -392 7 -2 65 -6 128 -9 63 -3 119 -5 123 -6 5 0 7 -46 6
-102 l-3 -103 342 -3 342 -2 0 -1239 0 -1239 108 -7 c59 -3 118 -7 132 -8 l25
-2 -3 -101 c-3 -99 -2 -102 21 -106 13 -2 202 -6 420 -7 l397 -2 1 888 c0 488
2 1084 5 1323 2 239 4 447 4 463 l0 27 189 0 c139 0 191 -3 199 -12 5 -7 27
-67 47 -133 80 -256 242 -650 388 -940 211 -423 515 -903 775 -1223 23 -30 50
-72 59 -94 9 -23 32 -51 53 -67 20 -14 92 -91 161 -171 360 -420 925 -912
1414 -1231 205 -134 249 -161 435 -266 664 -376 1448 -664 2170 -797 47 -9
108 -20 135 -26 63 -12 302 -46 420 -59 790 -92 1646 -47 2410 125 448 101
932 261 1295 426 41 19 104 48 140 64 769 344 1503 859 2110 1476 l226 230
287 -2 287 -1 0 360 0 359 71 109 c359 544 636 1097 814 1626 l53 157 7 -107
c15 -248 78 -429 190 -546 40 -42 145 -126 183 -146 11 -6 22 -21 26 -35 8
-33 101 -116 186 -165 135 -77 239 -108 864 -258 137 -33 142 -38 127 -133
-17 -102 -65 -169 -146 -200 -17 -7 -68 -18 -115 -26 -239 -39 -847 20 -1205
117 -38 10 -77 19 -87 19 -16 0 -17 -29 -17 -397 -1 -219 3 -404 7 -410 4 -7
68 -29 142 -48 74 -20 146 -41 160 -47 l25 -12 -35 -7 -35 -6 30 -3 30 -2 -30
-7 c-27 -5 -30 -11 -33 -47 -2 -25 2 -45 10 -52 34 -28 373 -93 648 -124 58
-6 247 -12 420 -12 330 -1 414 6 608 53 172 41 361 139 465 239 192 185 287
498 274 902 -8 246 -34 369 -108 508 -42 79 -124 187 -143 187 -6 0 -15 5 -19
10 -7 9 -5 -4 8 -70 9 -42 -2 -28 -20 25 -24 72 -102 186 -171 250 -127 117
-235 156 -779 284 -422 100 -397 92 -389 119 54 176 146 259 319 288 134 23
643 -10 870 -56 39 -8 94 -17 123 -21 l52 -7 0 376 0 376 -52 15 c-29 8 -80
20 -113 28 l-60 13 0 93 c0 110 5 104 -122 132 -244 52 -382 64 -723 65 -297
0 -335 -2 -440 -23 -335 -65 -513 -149 -667 -316 -36 -39 -62 -62 -59 -52 27
79 61 275 100 576 15 107 28 205 31 217 5 21 9 22 190 25 122 2 188 7 196 15
24 24 28 190 29 1174 l0 1016 88 124 c49 68 301 422 560 786 260 363 472 663
472 666 0 3 -121 4 -270 3 -148 0 -270 2 -270 6 0 7 249 357 276 389 8 8 14
19 14 22 0 4 -305 7 -679 7 l-679 0 -53 -72 c-120 -165 -297 -415 -309 -437
l-12 -24 -19 24 c-33 42 -371 517 -509 714 -74 105 -155 215 -180 245 -26 30
-89 114 -140 185 -256 357 -482 626 -779 929 -129 131 -463 437 -540 494 -20
15 -70 54 -111 88 -186 151 -515 377 -810 554 -164 99 -549 298 -763 394 -709
317 -1441 508 -2252 586 -200 19 -760 34 -950 24z m1974 -420 c210 -24 368
-78 468 -160 44 -36 56 -60 26 -51 -10 3 -56 16 -103 30 -47 14 -195 53 -330
86 -135 34 -261 65 -280 71 -19 5 -59 12 -87 16 -51 6 -67 18 -40 27 21 7 206
-3 346 -19z m-1723 -6 c-8 -28 -69 -384 -96 -563 -29 -190 -57 -418 -74 -595
-30 -312 -35 -337 -73 -378 l-34 -36 -112 -3 c-62 -1 -263 -5 -447 -7 -184 -3
-425 -12 -535 -20 -352 -25 -475 -30 -475 -17 0 33 282 393 489 626 73 82 328
329 446 432 223 196 507 386 810 542 93 47 110 51 101 19z m-841 -7 c-12 -12
-151 -66 -350 -136 -242 -86 -330 -121 -507 -206 -160 -77 -170 -80 -203 -69
-19 6 -35 15 -35 19 0 21 69 107 143 177 104 100 181 140 303 159 311 47 439
61 574 64 53 0 80 -3 75 -8z m1029 -18 c93 -32 147 -104 165 -218 10 -64 32
-284 76 -750 3 -27 7 -72 10 -100 14 -143 25 -287 25 -339 0 -58 -2 -61 -42
-99 l-43 -39 -205 5 c-170 3 -211 7 -238 21 -52 28 -64 54 -57 128 17 169 60
523 95 768 11 74 31 225 45 335 24 185 41 289 52 308 5 9 62 0 117 -20z m-554
-1 c0 -16 -27 -41 -160 -143 -74 -58 -193 -150 -265 -206 -363 -281 -673 -597
-948 -966 -133 -177 -170 -218 -227 -247 -54 -28 -114 -25 -256 9 -152 38
-225 65 -254 96 -29 30 -24 66 26 215 128 374 331 627 624 775 185 93 915 342
1274 435 157 41 186 45 186 32z m1361 -12 c561 -62 930 -146 1323 -301 301
-119 384 -190 574 -485 46 -71 122 -187 168 -259 85 -132 110 -184 100 -210
-7 -20 -76 -47 -101 -41 -12 3 -62 41 -111 84 -327 283 -856 628 -1321 860
-201 100 -639 282 -802 334 -47 15 -67 38 -33 38 10 0 102 -9 203 -20z m-398
-35 c174 -48 465 -144 587 -193 579 -235 1160 -583 1702 -1019 49 -40 97 -77
105 -82 9 -4 13 -13 9 -20 -8 -12 -344 -122 -541 -176 -251 -69 -502 -91 -701
-61 -147 23 -140 16 -304 291 -147 248 -283 447 -444 648 -126 159 -241 279
-510 535 -55 52 -76 79 -76 97 0 14 2 25 5 25 3 0 79 -20 168 -45z m-2518 17
c-6 -5 -84 -33 -175 -61 -339 -108 -669 -225 -935 -331 -93 -37 -185 -73 -204
-79 -181 -59 87 109 364 230 256 111 558 193 880 239 75 11 80 11 70 2z m4424
-106 c47 -13 149 -40 226 -61 193 -51 290 -86 430 -155 138 -68 222 -128 316
-226 72 -76 149 -175 149 -192 0 -6 -51 16 -112 48 -62 32 -219 102 -348 155
-399 164 -512 225 -718 390 -58 47 -83 85 -45 71 9 -4 55 -17 102 -30z m-4460
-58 c-7 -13 -20 -34 -29 -48 -9 -14 -43 -65 -75 -114 -113 -171 -179 -228
-405 -351 -162 -88 -279 -162 -468 -297 -152 -109 -248 -165 -267 -159 -5 2
-28 6 -50 8 -79 9 -156 71 -218 175 -71 118 -70 177 2 240 31 27 201 114 416
213 212 97 581 227 824 291 75 20 156 42 181 49 25 7 58 13 73 14 26 1 27 -1
16 -21z m2569 -164 c285 -273 553 -616 775 -991 101 -171 116 -216 75 -227
-13 -3 -113 -1 -223 4 -110 5 -306 14 -435 20 -195 9 -237 13 -247 26 -18 25
-33 180 -58 599 -8 137 -19 302 -24 365 -16 187 -22 340 -13 340 5 0 72 -61
150 -136z m2304 -191 c220 -88 630 -302 690 -361 16 -16 16 -19 0 -52 -23 -48
-188 -212 -239 -239 -60 -30 -93 -27 -130 12 -17 17 -116 158 -218 312 -103
154 -202 298 -220 320 -41 53 -48 65 -36 65 6 0 75 -26 153 -57z m943 -199
c263 -139 711 -518 999 -844 127 -143 176 -208 176 -231 0 -29 -30 -12 -112
62 -281 253 -546 458 -852 657 -208 136 -308 212 -326 247 -8 17 -16 63 -18
102 l-4 73 33 -14 c19 -8 66 -31 104 -52z m-6195 -22 c0 -9 -189 -446 -245
-567 -20 -44 -41 -83 -46 -86 -29 -18 -241 50 -386 123 -79 40 -98 60 -70 71
6 3 62 42 122 87 133 99 370 252 503 325 96 52 122 62 122 47z m-1256 -128
c57 -128 127 -212 265 -321 20 -16 22 -23 13 -40 -29 -54 -714 -660 -789 -698
-27 -13 -93 -36 -148 -50 -55 -15 -190 -53 -300 -87 -335 -101 -460 -136 -464
-132 -6 5 232 355 333 489 256 340 468 551 726 725 100 67 298 178 320 179 9
0 26 -25 44 -65z m7402 -125 c64 -24 196 -110 434 -283 343 -248 656 -520 935
-810 94 -97 171 -181 173 -186 6 -16 -9 -12 -160 39 -313 108 -800 247 -1058
301 -424 89 -473 109 -599 238 -126 128 -222 307 -207 387 6 32 17 42 84 85
59 37 93 69 142 132 95 121 144 139 256 97z m-6941 -314 c16 -4 97 -35 180
-69 82 -35 171 -70 196 -80 25 -9 56 -28 69 -41 23 -24 23 -24 5 -72 -25 -65
-44 -93 -72 -104 -39 -15 -200 -45 -573 -108 -195 -34 -371 -65 -390 -71 -62
-18 -89 -13 -96 16 -6 23 0 32 42 68 27 22 92 80 144 127 145 131 361 309 400
329 19 11 42 17 50 15 8 -2 28 -6 45 -10z m6285 -155 c83 -53 240 -241 240
-286 0 -16 -33 -15 -180 7 -36 5 -209 29 -385 54 -401 56 -385 53 -385 70 0
16 42 32 295 114 282 92 329 96 415 41z m-7907 -178 c-37 -46 -77 -109 -188
-292 -90 -147 -185 -280 -225 -313 -50 -42 -119 -87 -180 -117 -83 -42 -250
-102 -250 -91 0 11 65 93 184 230 182 210 434 450 645 614 45 35 53 18 14 -31z
m4507 32 c16 -40 12 -83 -10 -114 -19 -26 -24 -28 -78 -24 -31 2 -176 11 -322
19 -146 8 -285 17 -310 20 -25 3 -135 12 -245 21 -110 8 -204 19 -210 25 -32
32 99 47 640 72 33 2 165 4 293 5 l232 2 10 -26z m700 6 c5 -8 10 -38 10 -66
0 -50 -1 -52 -37 -70 -34 -17 -63 -18 -297 -16 -142 1 -263 5 -267 8 -12 7
-11 81 2 127 l10 38 285 -3 c240 -3 286 -5 294 -18z m633 0 c117 -10 339 -28
345 -29 1 -1 2 -8 2 -16 0 -8 -10 -17 -22 -19 -24 -5 -123 -21 -193 -31 -62
-9 -387 -35 -522 -42 l-122 -6 -6 37 c-4 20 -4 57 0 83 l7 46 194 -7 c108 -4
250 -11 317 -16z m-2643 -105 c36 -4 90 -13 120 -20 203 -51 508 -84 840 -91
273 -6 310 -9 310 -28 0 -8 7 -20 16 -27 15 -12 16 -34 10 -198 -4 -101 -8
-187 -10 -190 -4 -6 -7 -52 -26 -401 -15 -277 -31 -473 -41 -497 -8 -21 -15
-23 -115 -25 l-107 -3 -89 -240 c-49 -132 -126 -337 -170 -455 -44 -118 -94
-257 -111 -308 -23 -73 -32 -90 -40 -77 -14 26 -203 515 -312 810 -12 33 -34
89 -48 125 -14 36 -57 151 -97 255 -74 196 -119 306 -127 315 -2 3 -52 7 -110
10 l-106 5 -66 165 c-69 171 -92 214 -121 230 -35 19 -109 29 -215 30 -61 1
-125 4 -142 7 l-33 5 19 27 c10 14 33 55 51 91 59 119 142 251 193 306 55 61
155 136 211 159 43 18 165 34 216 29 19 -2 64 -6 100 -9z m4040 -14 c340 -39
784 -108 893 -138 89 -25 103 -48 191 -312 136 -412 248 -879 300 -1262 4 -25
9 -57 11 -70 39 -214 97 -896 84 -993 -7 -55 -30 -79 -94 -97 -22 -6 -46 -16
-53 -22 -18 -14 -21 -8 -81 143 -73 186 -298 764 -331 850 -9 25 -63 164 -120
310 -183 475 -217 553 -242 562 -39 15 -102 -48 -113 -113 -4 -25 -11 -37 -16
-32 -5 5 -50 110 -98 232 -104 260 -125 295 -189 323 -42 19 -53 20 -101 10
-62 -13 -99 -43 -130 -106 -22 -45 -121 -297 -141 -361 -13 -43 -30 -68 -30
-46 0 30 -188 465 -312 721 -94 196 -158 342 -158 362 0 28 32 43 119 55 118
17 386 9 611 -16z m-4560 5 c0 -16 -56 -117 -137 -250 -31 -49 -64 -105 -74
-123 -11 -18 -27 -48 -37 -65 -11 -18 -34 -59 -52 -91 -17 -31 -40 -62 -50
-67 -10 -6 -98 -10 -195 -10 -163 0 -176 1 -171 18 3 9 28 109 56 222 54 218
89 308 130 327 21 9 133 24 350 46 19 2 68 5 108 5 56 2 72 -1 72 -12z m3708
-51 c52 -43 295 -553 447 -935 30 -74 66 -163 80 -198 30 -72 33 -55 -49 -267
-61 -154 -114 -292 -266 -685 -40 -102 -92 -236 -116 -299 -25 -63 -74 -189
-109 -280 -97 -250 -121 -310 -128 -317 -4 -4 -116 -2 -249 4 -134 7 -318 14
-411 17 -92 2 -176 9 -186 14 -25 14 -31 52 -31 200 0 82 5 148 15 186 14 54
193 529 244 649 12 26 21 52 21 57 0 5 -61 9 -138 9 l-139 0 -7 128 c-4 70 -9
217 -12 327 -3 110 -7 214 -9 230 -2 17 -7 260 -11 541 l-7 510 28 26 c32 31
45 33 225 47 74 6 223 18 330 28 462 39 441 39 478 8z m-4388 -31 c0 -9 -28
-129 -62 -266 l-61 -248 -42 -19 c-53 -24 -69 -50 -143 -241 -122 -315 -134
-347 -167 -437 -19 -50 -56 -149 -84 -220 -129 -332 -355 -924 -376 -987 -26
-79 -20 -80 -55 14 -7 21 -112 305 -194 525 l-22 60 -112 3 c-112 3 -113 3
-124 30 -6 15 -41 110 -78 212 l-68 185 -311 3 c-195 1 -311 6 -311 12 0 15
278 386 438 585 250 309 479 563 535 592 16 8 90 28 165 44 507 111 827 164
1010 168 51 1 62 -2 62 -15z m3106 -50 c68 -18 97 -43 124 -106 28 -66 37
-222 43 -806 4 -381 4 -403 -14 -412 -10 -6 -172 -10 -399 -10 l-382 0 6 43
c6 43 38 428 56 682 37 510 40 535 68 586 l26 49 211 -6 c130 -3 229 -11 261
-20z m3576 -115 c380 -87 633 -158 933 -258 132 -45 241 -81 243 -81 2 0 0 -4
-3 -10 -4 -6 -94 -10 -238 -10 -129 0 -249 -5 -269 -10 -72 -20 -118 -84 -118
-161 1 -55 20 -83 491 -734 44 -60 102 -141 129 -180 27 -38 71 -100 97 -136
137 -188 320 -444 336 -469 l19 -30 -116 -54 c-64 -31 -131 -58 -150 -61 -39
-8 -34 -15 -181 270 -115 223 -178 335 -298 535 -103 169 -310 486 -376 575
-21 28 -71 95 -111 150 -91 123 -402 514 -487 612 -35 40 -63 75 -63 78 0 10
29 5 162 -26z m-233 -78 c137 -124 339 -334 433 -452 91 -113 112 -142 282
-379 285 -399 722 -1162 734 -1281 4 -48 4 -48 -43 -78 -50 -31 -183 -78 -440
-154 -82 -25 -215 -64 -295 -88 -113 -34 -161 -44 -219 -44 l-74 0 -12 41
c-15 51 -22 108 -40 349 -48 633 -153 1206 -342 1860 -41 143 -77 268 -80 278
-10 33 20 17 96 -52z m-7899 -27 c0 -4 -37 -48 -83 -98 -265 -291 -480 -560
-681 -854 -54 -78 -106 -147 -116 -152 -29 -15 -274 -13 -313 3 -64 27 -64 30
-7 207 104 326 230 511 457 666 118 81 319 159 499 193 60 12 129 25 154 30
56 11 90 13 90 5z m9716 -74 c20 -21 46 -53 58 -69 11 -16 41 -53 65 -81 l45
-52 -35 7 c-50 11 -99 32 -99 44 0 6 -27 42 -60 82 -33 39 -60 75 -60 80 0 8
29 28 42 29 4 0 24 -18 44 -40z m-10811 -437 c-45 -93 -111 -241 -146 -330
-35 -90 -66 -163 -70 -163 -15 0 -64 47 -116 113 -31 39 -85 101 -121 138 -35
38 -61 73 -58 78 11 17 188 145 261 189 104 62 282 140 321 142 7 0 -25 -75
-71 -167z m-1403 17 c84 -10 236 -49 313 -82 92 -38 255 -121 255 -130 0 -11
1 -11 -121 8 -124 19 -356 14 -489 -10 -403 -73 -742 -288 -959 -609 -37 -55
-122 -230 -145 -297 -60 -182 -81 -333 -73 -535 9 -220 54 -413 127 -540 16
-29 30 -56 30 -59 0 -10 -105 72 -173 134 -249 227 -370 602 -322 995 37 305
129 511 320 713 315 334 726 470 1237 412z m4156 13 c-102 -213 -381 -753
-389 -753 -14 0 -10 192 6 309 21 149 52 273 110 439 3 9 41 12 141 12 74 0
134 -3 132 -7z m457 -1 c13 -9 75 -189 67 -196 -3 -3 -91 -6 -197 -6 -138 0
-196 -3 -207 -12 -13 -11 -86 -195 -310 -783 -27 -71 -71 -186 -98 -255 -55
-140 -131 -341 -180 -473 -18 -48 -37 -90 -41 -93 -14 -9 -10 151 7 265 22
153 68 358 110 491 77 248 263 669 419 950 l67 120 176 0 c97 0 182 -4 187 -8z
m7657 -4 c19 -16 128 -176 128 -189 0 -5 -127 -9 -309 -9 -279 0 -311 -2 -330
-17 -20 -16 -21 -21 -10 -53 7 -19 17 -42 24 -50 7 -8 87 -118 177 -245 91
-126 247 -345 348 -485 101 -140 185 -265 188 -277 3 -14 -3 -25 -18 -33 -13
-7 -25 -8 -29 -3 -49 71 -637 887 -733 1018 -32 44 -73 100 -90 125 -17 25
-60 84 -95 131 -34 48 -63 89 -63 93 0 3 179 6 398 6 304 0 402 -3 414 -12z
m-2981 -136 c6 -20 54 -145 106 -276 97 -246 103 -271 72 -325 -5 -9 -27 -65
-50 -126 -23 -60 -47 -126 -55 -145 -52 -139 -93 -235 -99 -235 -4 0 -26 68
-50 150 -24 83 -58 188 -75 235 -17 47 -43 120 -58 163 l-26 78 18 52 c18 51
157 410 176 455 13 29 25 21 41 -26z m3409 -27 c13 -14 19 -25 13 -25 -6 0
-18 11 -27 25 -9 14 -15 25 -13 25 2 0 14 -11 27 -25z m-9043 -547 c-17 -264
-99 -691 -172 -898 -93 -261 -163 -443 -179 -465 -11 -15 -21 -16 -95 -7 -46
6 -88 15 -94 21 -13 13 -27 -26 433 1176 106 279 101 265 108 265 3 0 2 -42
-1 -92z m5413 -220 c28 -90 72 -223 97 -297 51 -152 51 -161 4 -281 -16 -41
-62 -158 -101 -260 -135 -350 -181 -464 -190 -470 -8 -5 -194 3 -352 15 -85 7
-90 8 -85 29 3 11 42 116 87 231 45 116 115 298 156 405 41 107 81 211 90 230
9 19 29 69 44 110 31 84 155 402 170 438 6 13 14 21 19 18 5 -3 32 -79 61
-168z m-6833 -13 c18 -49 33 -96 33 -102 0 -10 -51 -13 -220 -13 -121 0 -220
-2 -220 -4 0 -3 63 -170 140 -372 77 -202 139 -368 138 -370 -2 -1 -55 14
-117 35 -105 35 -115 40 -132 73 -24 47 -278 721 -295 781 -13 51 -13 50 31
60 11 3 153 4 315 3 l295 -1 32 -90z m4123 83 c0 -17 -28 -497 -35 -608 -43
-653 -48 -688 -110 -701 -17 -4 -92 -7 -168 -8 l-138 -1 -19 46 c-34 78 -42
47 135 524 48 129 124 336 170 460 113 309 109 300 139 300 15 0 26 -6 26 -12z
m610 4 c0 -5 -17 -51 -38 -103 l-38 -94 -102 -3 -102 -3 -16 -37 c-20 -48
-180 -473 -232 -617 -22 -60 -47 -126 -56 -145 -19 -39 -19 -76 4 413 5 106
13 273 16 372 4 99 11 190 15 203 l9 22 270 0 c148 0 270 -4 270 -8z m264
-104 c-2 -79 -14 -98 -66 -98 -28 0 -37 16 -20 36 5 5 21 42 37 82 35 89 50
82 49 -20z m7543 28 c-18 -24 -49 -69 -70 -100 l-38 -56 -126 0 -127 0 -37
-42 c-21 -24 -118 -155 -216 -293 -218 -305 -247 -344 -253 -344 -3 0 -27 32
-55 71 -164 232 -205 294 -205 308 0 8 64 105 143 215 134 188 187 263 195
275 4 5 802 17 814 12 4 -1 -7 -22 -25 -46z m-14570 -158 c-3 -24 -30 -97 -60
-163 -30 -66 -82 -193 -117 -282 l-63 -163 -81 1 c-45 0 -115 6 -156 12 l-75
12 3 95 c4 110 33 214 82 290 86 134 265 237 419 239 l54 1 -6 -42z m305 -7
c24 -11 51 -22 61 -25 9 -3 17 -10 17 -16 0 -7 -24 -10 -67 -8 -63 3 -67 5
-74 30 -11 44 0 47 63 19z m-225 -216 c38 -48 71 -54 290 -55 147 0 184 -3
196 -15 9 -8 18 -44 22 -82 9 -87 18 -103 55 -103 37 0 37 6 -1 -200 -17 -91
-33 -186 -36 -212 -3 -27 -8 -48 -10 -48 -2 0 -25 14 -51 32 -144 99 -452 230
-634 269 -32 7 -58 13 -58 15 0 8 165 407 177 427 8 14 21 7 50 -28z m12288
-116 c15 -22 105 -152 202 -287 97 -136 198 -280 224 -320 54 -83 91 -173 87
-211 -3 -23 -7 -20 -47 39 -25 36 -83 119 -130 185 -102 145 -263 370 -341
480 -82 115 -87 125 -64 142 29 21 42 16 69 -28z m-7850 19 c2 -7 61 -161 130
-343 183 -480 171 -445 156 -454 -17 -11 -184 -22 -192 -13 -7 8 -160 405
-191 498 l-21 60 32 85 c18 46 40 105 49 132 16 46 29 59 37 35z m7708 -325
c127 -178 224 -314 379 -536 55 -77 71 -109 79 -155 10 -54 5 -709 -5 -719 -9
-9 -206 99 -282 155 -125 92 -217 215 -278 375 -30 78 -95 300 -114 387 -5 24
-44 119 -146 351 -58 133 -62 157 -36 188 21 24 250 151 261 144 4 -1 68 -87
142 -190z m-11355 135 c-9 -13 -39 -62 -67 -110 -29 -48 -58 -92 -66 -98 -22
-18 -27 18 -15 116 12 105 19 114 103 114 59 0 59 0 45 -22z m243 12 c63 -12
254 -93 285 -122 12 -11 38 -61 57 -111 157 -403 317 -825 317 -834 0 -2 -6
-3 -14 -3 -17 0 -413 -107 -443 -120 -20 -8 -29 -1 -91 83 -38 51 -119 139
-181 197 -62 58 -143 146 -181 195 -37 50 -84 106 -104 124 -20 19 -36 41 -36
47 0 12 176 408 221 496 12 23 27 46 33 50 16 11 74 10 137 -2z m253 -18 l14
-28 -44 21 c-40 18 -42 21 -22 27 36 10 37 10 52 -20z m1994 -269 c-3 -153 -6
-184 -23 -218 -22 -43 -39 -47 -112 -24 -28 9 -33 15 -33 42 0 34 102 341 121
363 6 8 20 14 31 14 19 0 19 -7 16 -177z m8389 60 c96 -181 320 -799 380
-1050 7 -28 -15 -30 -79 -9 -96 33 -555 161 -738 207 -107 26 -301 69 -430 95
-129 25 -249 52 -267 59 -44 19 -59 48 -72 142 -15 104 1 174 53 238 50 60
123 94 356 161 245 70 301 88 535 168 105 36 197 66 206 66 9 0 32 -31 56 -77z
m-9892 -53 c28 -7 56 -18 63 -23 22 -17 46 -72 120 -268 39 -102 89 -231 112
-288 22 -57 39 -105 37 -108 -6 -5 -164 -43 -182 -43 -7 0 -27 36 -45 83 -95
247 -258 675 -264 693 -6 20 -4 20 51 -6 32 -15 81 -33 108 -40z m-2173 -57
c11 -6 -24 -73 -37 -73 -14 0 -95 61 -95 72 0 8 119 9 132 1z m250 -38 c35 -9
95 -28 133 -42 78 -29 309 -143 302 -149 -2 -3 -46 2 -98 10 -52 8 -134 18
-184 21 -194 13 -338 43 -349 71 -3 9 1 25 9 37 8 12 15 34 15 48 0 15 6 29
12 31 15 5 70 -4 160 -27z m4402 -175 c20 -52 36 -98 36 -102 0 -5 -43 -8 -95
-8 -69 0 -95 3 -95 13 0 6 16 50 35 97 19 47 35 88 35 92 0 4 5 19 11 35 l11
28 13 -30 c8 -16 30 -73 49 -125z m2700 67 c-3 -18 -18 -45 -32 -62 l-25 -30
6 32 c3 18 13 48 21 68 19 44 40 38 30 -8z m3426 -74 c7 -16 16 -91 20 -172
10 -177 4 -204 -33 -142 -21 36 -127 308 -127 327 0 11 15 14 63 14 60 0 65
-2 77 -27z m-7417 -32 c13 -13 -4 -171 -18 -173 -11 -1 -72 133 -81 180 l-6
32 47 -15 c26 -7 52 -18 58 -24z m237 -45 c0 -8 -12 -47 -26 -86 l-27 -71 -41
6 c-83 13 -86 16 -66 84 20 69 34 81 100 81 46 0 60 -3 60 -14z m2750 -24 c0
-4 -9 -32 -19 -62 -22 -64 -30 -67 -154 -69 l-78 -1 -18 43 c-40 90 -42 86 46
90 166 7 223 7 223 -1z m979 -21 c20 -16 23 -24 17 -55 -8 -42 -33 -61 -93
-70 -38 -5 -43 -4 -43 13 0 17 33 96 53 128 9 14 34 8 66 -16z m326 4 c88 -8
226 -15 307 -15 81 0 181 -5 223 -11 70 -11 75 -13 69 -33 -3 -11 -10 -25 -14
-29 -18 -20 -745 -36 -780 -17 -38 21 -19 120 23 120 7 0 84 -7 172 -15z
m2193 -27 c17 -17 15 -58 -3 -58 -18 0 -34 28 -28 51 6 22 14 24 31 7z m3533
-113 c41 -58 103 -147 137 -197 l64 -92 -4 -367 c-1 -202 -6 -370 -10 -374 -5
-6 -29 10 -171 112 -42 31 -52 56 -44 116 5 43 -8 417 -17 472 -2 17 -7 89
-11 160 -6 127 -19 237 -32 271 -14 36 16 2 88 -101z m-8724 25 l83 0 20 -42
c11 -24 93 -236 183 -473 90 -236 236 -619 324 -850 88 -231 193 -507 234
-614 94 -249 110 -275 185 -297 72 -21 124 -8 172 43 31 33 40 50 91 167 12
27 24 47 26 44 3 -3 16 -39 29 -79 30 -93 131 -351 148 -378 13 -21 42 -27 74
-14 9 3 34 43 55 87 l38 81 -2 -320 -2 -320 -360 -6 c-198 -4 -417 -7 -487 -8
l-128 -1 0 -309 0 -309 -22 -6 c-34 -9 -135 -7 -120 2 14 9 22 33 59 172 33
124 46 191 38 198 -3 3 -51 5 -108 4 -56 -1 -118 1 -138 4 -42 6 -43 -2 2 143
17 51 28 96 25 98 -7 8 -893 11 -904 4 -9 -6 -33 -112 -69 -299 -8 -46 -17
-82 -18 -80 -11 12 -111 582 -155 883 -44 309 -92 725 -92 805 -1 83 1 91 81
300 46 118 162 422 258 675 180 473 261 683 270 699 3 5 33 6 66 2 33 -3 98
-6 144 -6z m4273 -22 c0 -14 -15 -52 -190 -503 -61 -159 -128 -330 -147 -380
-19 -49 -45 -117 -58 -150 -12 -33 -45 -118 -73 -190 -28 -71 -80 -204 -115
-295 -221 -569 -199 -519 -233 -526 -36 -7 -423 2 -431 9 -2 3 6 29 20 59 13
29 61 150 107 268 45 118 118 307 162 420 136 348 194 498 268 690 39 102 94
244 121 315 71 182 105 252 126 258 10 3 90 11 178 17 88 6 171 12 185 14 60
7 80 5 80 -6z m-3728 -10 c17 -14 15 -9 181 -443 330 -863 457 -1203 457
-1221 0 -11 -16 -56 -35 -101 -19 -45 -39 -101 -45 -124 -7 -24 -15 -38 -20
-33 -11 11 -56 119 -117 279 -25 66 -95 251 -155 410 -61 160 -121 317 -133
350 -12 33 -85 222 -160 420 -123 320 -175 461 -175 472 0 10 188 1 202 -9z
m4700 -42 c14 -21 208 -560 494 -1376 36 -102 99 -278 140 -393 41 -114 72
-212 69 -217 -9 -15 -200 -13 -213 3 -10 13 -18 34 -312 867 -69 197 -97 275
-168 475 -156 436 -182 514 -182 538 0 15 11 50 25 77 l25 49 57 -6 c32 -3 61
-11 65 -17z m-1692 4 c0 -6 -70 -192 -156 -413 -86 -221 -166 -429 -179 -462
-12 -33 -77 -202 -145 -375 -265 -679 -302 -776 -302 -807 0 -52 47 -122 96
-144 38 -16 71 -19 284 -19 133 -1 242 -4 242 -8 0 -4 -11 -34 -25 -67 -32
-78 -33 -121 -2 -129 12 -3 211 -6 443 -6 321 0 424 3 436 13 20 15 43 76 233
622 86 248 172 493 190 545 96 268 258 729 267 759 5 18 13 29 18 25 15 -15
167 -496 179 -564 10 -57 26 -178 61 -455 12 -90 43 -378 60 -560 18 -187 47
-660 46 -760 l-1 -90 -905 -5 c-498 -3 -906 -7 -907 -8 -2 -1 -3 -139 -3 -307
l0 -305 -64 0 c-35 0 -84 3 -110 6 l-46 7 0 173 0 174 -97 2 c-54 0 -104 1
-110 1 -10 -1 -13 30 -13 122 l0 122 -46 7 c-26 3 -101 6 -167 6 l-120 0 6 68
c4 37 11 213 17 392 6 179 16 384 22 455 8 84 12 434 14 982 1 468 4 867 8
885 3 19 19 47 35 62 l28 27 254 15 c140 8 259 16 264 18 23 10 195 5 195 -4z
m-1957 -30 c5 -4 -4 -42 -19 -84 -15 -42 -30 -73 -35 -69 -6 7 -69 158 -69
167 0 6 115 -7 123 -14z m1008 0 c10 0 37 -23 60 -52 l42 -53 -7 -230 c-3
-126 -6 -284 -7 -350 -1 -66 -5 -154 -9 -195 -5 -41 -10 -336 -11 -655 -1
-319 -6 -681 -10 -805 -8 -231 -26 -520 -32 -526 -1 -2 -203 -4 -447 -5 l-445
-1 -6 43 c-7 46 6 679 16 785 3 34 18 99 34 145 47 139 712 1862 728 1888 12
19 20 22 45 17 17 -3 39 -6 49 -6z m-3751 -5 c0 -3 -8 -22 -19 -43 -10 -20
-24 -56 -31 -79 -7 -23 -17 -40 -21 -37 -7 4 -39 102 -39 118 0 9 73 45 93 46
9 0 17 -2 17 -5z m7675 -176 c444 -90 1168 -290 1262 -348 65 -40 94 -121 169
-466 105 -489 184 -1091 211 -1610 7 -136 -1 -156 -89 -220 l-62 -45 -941 -1
c-517 -1 -951 -4 -965 -8 -25 -7 -25 -9 -28 -124 l-3 -117 -114 0 -114 0 5 33
c4 17 15 75 26 127 62 306 110 558 125 652 20 123 27 125 62 18 12 -36 28 -76
37 -88 l15 -22 438 0 c501 0 476 -4 449 78 -9 26 -28 79 -43 117 -14 39 -35
93 -45 120 -10 28 -73 190 -140 360 -66 171 -181 465 -255 655 -73 190 -157
404 -185 475 -135 344 -141 372 -88 425 36 37 40 37 273 -11z m-8635 -1 c36
-85 440 -1152 450 -1188 13 -49 9 -114 -15 -245 -8 -44 -17 -101 -20 -128 -7
-54 -18 -54 -36 1 -12 37 -145 394 -199 532 -16 41 -63 163 -104 270 -110 290
-146 383 -156 405 -5 11 -20 52 -35 90 -15 39 -40 103 -56 144 -39 99 -38 107
14 115 23 3 62 10 87 15 25 5 48 9 53 10 4 0 12 -9 17 -21z m-420 -97 c5 -11
51 -127 101 -258 50 -131 106 -276 124 -323 74 -191 366 -953 409 -1067 59
-158 70 -180 119 -226 l41 -38 -12 -122 c-7 -67 -17 -216 -23 -332 -6 -115
-14 -213 -18 -217 -3 -4 -137 -9 -296 -11 l-290 -4 -7 -24 c-16 -52 -58 -247
-58 -267 0 -12 -1 -22 -2 -22 -18 0 -417 104 -592 154 -125 36 -244 68 -263
72 -25 5 -41 16 -59 45 -13 22 -31 39 -39 39 -40 0 -62 50 -104 235 -33 142
-91 406 -91 410 0 2 30 20 68 40 159 84 327 238 435 401 153 231 221 461 220
754 0 217 -34 393 -113 583 -18 43 -31 79 -29 81 2 2 36 11 74 20 39 9 135 34
215 55 174 46 177 46 190 22z m-2256 -120 c32 -13 265 -58 337 -66 35 -4 63
-13 73 -23 47 -53 84 -208 67 -284 -11 -48 -16 -53 -156 -145 -55 -36 -131
-92 -170 -125 -84 -71 -96 -77 -193 -85 l-75 -6 6 94 c4 52 20 195 36 319 41
316 43 330 47 330 1 0 14 -4 28 -9z m13402 -230 c7 -107 6 -113 -12 -109 -17
3 -19 15 -22 133 -2 72 0 146 4 165 8 35 8 34 16 -20 4 -30 10 -106 14 -169z
m-12676 87 c22 -13 40 -28 40 -35 0 -14 -52 -102 -61 -103 -4 0 -9 28 -11 63
-3 34 -8 70 -13 80 -9 22 -2 22 45 -5z m12145 -77 c63 -24 236 -108 249 -121
6 -6 11 -254 13 -663 3 -389 8 -665 14 -683 13 -41 45 -70 94 -86 48 -16 48
-7 -1 -228 -55 -249 -76 -313 -104 -327 -33 -17 -109 -17 -115 0 -2 6 -9 122
-15 257 -17 370 -43 639 -91 935 -42 262 -112 604 -150 740 -37 129 -39 141
-23 150 10 6 24 18 33 27 21 22 36 22 96 -1z m-11932 -110 c22 -26 24 -40 30
-166 4 -76 7 -173 7 -216 0 -44 5 -81 11 -84 13 -9 3 -57 -22 -107 -31 -60
-115 -135 -202 -178 -86 -43 -113 -50 -103 -24 3 9 17 86 31 173 40 248 91
485 115 532 28 55 68 99 91 99 9 0 28 -13 42 -29z m12463 -166 c18 -27 17 -58
-8 -315 -19 -204 -33 -159 -30 100 2 263 3 269 38 215z m-12736 -90 c-6 -15
-22 -95 -35 -179 -14 -83 -32 -186 -40 -229 -8 -42 -15 -91 -15 -107 0 -34
-23 -50 -69 -50 -16 0 -33 -5 -36 -11 -4 -5 -6 -82 -5 -170 1 -157 1 -159 -22
-168 -48 -18 -196 -50 -261 -56 l-67 -7 2 308 3 309 80 20 c181 47 330 155
425 308 43 69 59 82 40 32z m12910 -18 c41 -21 85 -46 98 -56 l24 -17 0 -438
c0 -361 -2 -440 -13 -447 -8 -5 -75 -8 -149 -7 -129 3 -135 4 -132 23 1 11 13
94 26 185 25 170 40 356 52 638 4 89 10 161 13 160 4 -2 40 -20 81 -41z
m-3493 -420 c27 -71 134 -372 199 -556 72 -207 70 -205 291 -209 133 -3 163
-6 163 -18 0 -8 -12 -78 -26 -157 -71 -397 -95 -502 -117 -509 -24 -7 -396 -3
-403 5 -5 4 -12 72 -16 150 -38 652 -70 1014 -108 1232 -29 161 -25 176 17 62z
m-6182 -403 c9 -55 22 -157 30 -227 30 -256 100 -691 164 -1012 52 -265 61
-319 61 -360 0 -65 -6 -68 -106 -62 -85 5 -431 61 -441 71 -3 2 -17 67 -32
143 l-28 138 -94 5 -94 5 -25 118 c-18 86 -30 121 -43 129 -10 5 -62 8 -115 6
l-97 -3 3 90 c3 92 17 342 29 497 3 49 11 92 17 97 6 4 28 14 49 21 51 16 79
56 131 185 13 32 29 61 34 63 6 2 14 -14 18 -35 8 -46 140 -387 162 -421 20
-31 68 -27 94 8 10 14 61 138 113 275 111 292 146 377 152 372 2 -2 10 -49 18
-103z m-3439 -440 c-1 -95 1 -127 11 -131 8 -3 13 -24 13 -55 0 -61 5 -62
-137 33 -166 111 -306 222 -291 230 7 3 63 9 123 13 61 4 137 13 170 20 33 7
72 14 87 15 l26 1 -2 -126z m-414 -19 c56 -53 146 -128 201 -168 254 -185 242
-168 243 -355 1 -81 6 -182 13 -225 6 -44 9 -82 7 -86 -3 -4 -23 -5 -45 -3
l-40 4 -3 122 -3 121 -212 0 c-116 0 -214 3 -217 6 -16 15 -66 351 -91 612
l-7 67 26 0 c19 0 53 -26 128 -95z m13649 10 c4 -44 10 -89 13 -100 7 -23 -29
-50 -203 -152 -58 -33 -131 -76 -161 -95 -30 -18 -57 -34 -61 -36 -3 -1 -2 21
2 50 8 63 68 387 74 406 4 10 42 12 167 10 l163 -3 6 -80z m-12544 -52 c6 -38
28 -144 48 -238 20 -93 39 -191 42 -217 5 -45 4 -47 -21 -54 -21 -5 -61 7
-159 47 -183 73 -383 164 -427 193 -46 30 -70 79 -70 144 l0 51 48 6 c204 27
349 62 460 110 31 13 59 24 62 25 3 0 11 -30 17 -67z m12947 -98 c-5 -93 -67
-487 -115 -730 -54 -277 -59 -300 -94 -410 -33 -102 -35 -106 -28 -50 4 33 8
96 9 140 0 44 2 141 4 215 l3 135 -121 -2 -122 -3 0 124 c0 120 -1 124 -22
129 -13 3 -106 6 -207 6 -101 0 -186 3 -189 6 -7 6 39 92 58 110 8 7 67 41
130 76 63 34 179 105 258 158 78 53 153 102 165 109 15 8 61 11 147 10 118 -3
125 -4 124 -23z m-13342 -328 c84 -35 177 -72 206 -82 28 -11 49 -22 45 -26
-5 -4 -105 -9 -223 -10 l-215 -2 2 79 c3 86 7 104 22 104 6 0 79 -29 163 -63z
m807 -319 c183 -55 519 -148 621 -173 63 -15 119 -31 124 -36 9 -8 2 -51 -33
-219 -11 -52 -38 -180 -60 -285 -58 -276 -63 -295 -81 -305 -31 -16 -223 -80
-241 -80 -12 0 -21 10 -24 28 -4 15 -10 46 -16 69 -5 24 -25 120 -43 215 -19
95 -49 238 -66 318 -17 80 -44 204 -59 275 -29 139 -36 159 -54 148 -6 -3 -32
-5 -58 -4 -26 1 -57 -2 -67 -8 -18 -9 -22 -6 -36 29 -21 53 -20 63 5 55 12 -4
51 -16 88 -27z m9301 -178 c0 -118 0 -120 -22 -120 -21 1 -22 1 -5 11 16 10
19 23 17 98 -3 102 -2 131 5 131 3 0 5 -54 5 -120z m-3024 49 c-5 -80 -16 -88
-16 -12 0 52 5 73 17 73 1 0 1 -27 -1 -61z m8241 -246 c-1 -59 -3 -13 -3 102
0 116 2 164 3 108 2 -56 2 -151 0 -210z m-10935 244 c-12 -14 -13 -20 -4 -26
9 -5 8 -12 -4 -29 -20 -29 -37 -28 -29 1 22 84 28 95 40 84 11 -10 10 -16 -3
-30z m-3593 -187 c7 -25 18 -70 26 -102 7 -31 16 -62 20 -70 3 -7 0 -5 -8 5
-13 15 -89 301 -86 323 1 9 25 -67 48 -156z m1861 110 c0 -5 -2 -10 -4 -10 -3
0 -8 5 -11 10 -3 6 -1 10 4 10 6 0 11 -4 11 -10z m4423 -25 c-7 -21 -13 -19
-13 6 0 11 4 18 10 14 5 -3 7 -12 3 -20z m-2736 -17 c-3 -8 -6 -5 -6 6 -1 11
2 17 5 13 3 -3 4 -12 1 -19z m-1661 -31 c18 7 18 -4 -1 -23 -8 -9 -15 -11 -15
-6 0 6 -2 16 -3 24 -2 7 -2 10 0 6 2 -4 11 -4 19 -1z m1671 -90 c12 5 14 1 8
-17 -6 -17 -4 -21 6 -14 11 6 12 5 2 -8 -7 -8 -10 -18 -6 -21 3 -4 -13 -7 -36
-7 -40 0 -43 2 -37 23 4 12 14 51 24 87 l17 65 3 -57 c2 -47 6 -56 19 -51z
m5700 67 c-3 -3 -12 -4 -19 -1 -8 3 -5 6 6 6 11 1 17 -2 13 -5z m-2975 -49 c4
-34 8 -40 27 -38 13 2 20 -1 16 -7 -3 -6 -17 -10 -31 -10 -22 0 -24 4 -24 52
0 59 6 61 12 3z m2836 28 c-10 -2 -26 -2 -35 0 -10 3 -2 5 17 5 19 0 27 -2 18
-5z m194 -168 l-3 -95 130 0 131 0 0 -111 0 -111 28 6 c36 9 35 9 122 -4 44
-7 169 -10 305 -8 l230 3 3 -109 c2 -94 1 -108 -13 -103 -56 22 -356 112 -485
146 -85 23 -182 50 -215 60 -33 10 -104 29 -157 41 -54 12 -98 27 -98 32 0 5
-10 7 -22 3 -22 -6 -22 -5 -3 6 11 7 22 13 24 15 2 2 6 72 9 155 4 122 2 153
-9 160 -11 7 -9 9 6 9 19 0 20 -6 17 -95z m-7007 10 c99 -15 192 -31 208 -37
33 -13 35 -36 5 -42 -13 -3 -48 -10 -78 -16 -30 -7 -115 -24 -188 -40 -121
-25 -133 -26 -141 -11 -7 13 -41 161 -41 178 0 3 12 3 28 0 15 -3 108 -18 207
-32z m4390 -8 c8 -9 14 -76 8 -80 -4 -3 -56 -8 -115 -12 l-108 -7 0 49 c0 27
3 53 8 57 6 7 202 0 207 -7z m-2789 -8 c2 -5 2 -20 -2 -34 -7 -27 -29 -31 -93
-19 -24 5 -31 12 -31 29 0 13 6 26 13 28 19 8 107 5 113 -4z m10621 -41 c-3
-8 -6 -5 -6 6 -1 11 2 17 5 13 3 -3 4 -12 1 -19z m-734 -5 c-7 -2 -21 -2 -30
0 -10 3 -4 5 12 5 17 0 24 -2 18 -5z m297 -23 c85 -12 205 -30 269 -40 143
-25 161 -25 161 -3 0 26 11 8 15 -26 4 -28 2 -30 -15 -21 -10 5 -33 10 -49 10
-17 0 -71 9 -119 19 -99 22 -174 33 -215 32 -15 0 -25 4 -22 9 4 6 -6 10 -22
11 -15 0 -80 6 -143 14 -79 9 -99 13 -64 14 29 0 120 -8 204 -19z m-703 4 c-3
-3 -12 -4 -19 -1 -8 3 -5 6 6 6 11 1 17 -2 13 -5z m-37 -8 c0 -3 -18 -15 -40
-27 -22 -13 -40 -29 -40 -36 0 -7 -4 -13 -10 -13 -12 0 -64 -77 -78 -115 -6
-16 -11 -23 -11 -15 -1 26 45 114 75 143 16 16 44 37 64 48 39 20 40 21 40 15z
m-14130 -351 c63 -250 101 -395 136 -520 8 -27 21 -79 29 -115 9 -36 18 -73
21 -82 4 -13 0 -18 -16 -18 -15 0 -26 12 -39 43 -50 117 -120 383 -200 752
-40 189 -50 352 -14 249 8 -21 45 -160 83 -309z m-1212 321 c1 -3 -1 -6 -4 -5
-4 0 -14 -11 -24 -25 -9 -15 -19 -24 -22 -20 -3 3 -9 1 -13 -5 -3 -6 0 -11 7
-11 9 0 9 -3 -2 -10 -8 -5 -10 -10 -4 -10 7 0 10 -14 8 -35 -1 -19 2 -37 7
-41 5 -3 5 -13 -1 -25 -9 -15 -7 -19 5 -19 8 0 15 -9 15 -20 0 -11 -4 -20 -9
-20 -5 0 -12 -7 -15 -16 -5 -13 -3 -14 6 -6 10 8 14 2 15 -24 2 -19 -1 -34 -5
-34 -4 0 -8 -9 -8 -20 0 -11 4 -20 8 -20 4 0 8 -10 7 -22 0 -22 -1 -22 -9 -3
-7 16 -9 17 -9 3 -1 -9 4 -20 9 -23 6 -4 9 -19 8 -35 -1 -16 -6 -26 -10 -24
-4 3 -8 -2 -8 -10 0 -8 5 -18 10 -21 6 -3 10 -12 10 -18 0 -7 -4 -6 -10 3 -8
11 -10 7 -8 -17 1 -18 7 -33 13 -33 6 0 6 -3 -1 -8 -18 -12 -24 -63 -8 -69 12
-4 12 -8 3 -20 -16 -18 -21 -196 -6 -186 6 4 7 1 2 -8 -15 -23 -16 -69 -2 -69
7 -1 5 -6 -6 -14 -10 -8 -15 -16 -10 -19 4 -3 8 -60 8 -126 -1 -67 3 -121 8
-121 4 0 5 -5 1 -11 -6 -10 -6 -831 0 -924 1 -16 -3 -36 -8 -42 -4 -7 -5 -13
0 -13 5 0 9 -24 9 -52 -1 -29 4 -57 10 -61 7 -6 6 -10 -2 -13 -8 -4 -10 -23
-7 -61 4 -44 3 -53 -8 -47 -9 6 -9 3 1 -10 12 -15 13 -21 2 -38 -11 -18 -11
-20 3 -15 14 6 15 3 6 -13 -6 -11 -7 -20 -3 -20 4 0 9 -15 10 -33 1 -26 0 -28
-7 -12 -6 14 -9 15 -9 4 -1 -8 3 -19 8 -25 6 -5 4 -16 -5 -28 -13 -19 -14 -18
-15 10 -1 29 -1 29 -9 4 -4 -14 -8 570 -9 1297 l-1 1321 38 -2 c20 -2 38 -6
40 -10z m13142 -13 c0 -22 -2 -25 -10 -13 -13 20 -13 40 0 40 6 0 10 -12 10
-27z m-14673 8 c-44 -4 -71 -11 -77 -21 -5 -8 -10 -13 -11 -10 0 3 -2 13 -4
23 -3 15 6 17 78 15 l82 -1 -68 -6z m1630 -13 c-3 -8 -6 -5 -6 6 -1 11 2 17 5
13 3 -3 4 -12 1 -19z m373 12 c0 -13 -11 -13 -30 0 -12 8 -11 10 8 10 12 0 22
-4 22 -10z m11643 3 c-18 -2 -48 -2 -65 0 -18 2 -4 4 32 4 36 0 50 -2 33 -4z
m127 -23 c0 -16 -2 -30 -4 -30 -2 0 -6 14 -8 30 -3 17 -1 30 4 30 4 0 8 -13 8
-30z m-13204 -2 c-3 -13 -6 -52 -6 -88 -1 -52 -3 -60 -11 -41 -5 13 -7 31 -5
40 6 19 -71 75 -106 76 -75 4 -89 6 -85 13 3 4 -40 8 -96 9 -182 5 -115 13
102 13 l213 0 -6 -22z m6439 12 c18 -7 18 -8 -8 -15 -24 -6 -28 -12 -24 -32 3
-15 -1 -27 -12 -33 -9 -4 -13 -12 -9 -16 5 -4 3 -13 -3 -20 -6 -8 -12 -32 -12
-54 -1 -22 -6 -40 -10 -40 -4 0 -3 -9 3 -20 9 -16 8 -18 -5 -14 -8 4 -15 1
-15 -5 0 -6 8 -11 18 -12 13 0 12 -3 -6 -12 -16 -7 -22 -17 -19 -29 3 -10 2
-18 -2 -18 -12 0 -9 -34 3 -42 7 -5 3 -8 -9 -8 -11 0 -15 -4 -10 -8 15 -11 17
-32 3 -29 -7 1 -12 -6 -10 -15 2 -10 -2 -18 -8 -18 -6 0 -10 -8 -9 -17 1 -10
-2 -26 -6 -37 -5 -12 -3 -21 6 -27 11 -7 11 -9 1 -9 -7 0 -10 -5 -7 -10 3 -6
-1 -13 -10 -16 -10 -4 -13 -13 -10 -25 4 -11 2 -19 -3 -19 -6 0 -9 -8 -8 -17
2 -10 -2 -26 -8 -36 -8 -14 -8 -20 4 -27 12 -8 12 -10 -5 -11 -11 0 -14 -3 -7
-6 8 -3 5 -11 -10 -24 -13 -10 -17 -18 -10 -19 9 0 8 -7 -4 -25 -9 -14 -14
-28 -11 -32 4 -3 0 -18 -9 -34 -8 -16 -12 -29 -8 -29 4 0 1 -6 -5 -14 -7 -8
-13 -33 -14 -55 -1 -23 -5 -41 -9 -41 -19 0 -13 25 142 615 34 127 69 260 78
297 17 69 21 73 57 58z m4345 3 c0 -5 33 -8 72 -7 70 1 70 0 10 -3 -34 -2 -60
-7 -58 -12 3 -4 -32 -6 -77 -5 -120 2 -133 7 -37 14 l85 6 -103 2 c-99 2 -103
1 -97 -18 3 -11 2 -20 -3 -20 -17 0 -25 -79 -10 -97 11 -14 11 -15 0 -9 -10 6
-12 1 -8 -20 9 -52 15 -77 20 -82 3 -2 -1 -14 -9 -25 -10 -14 -11 -25 -4 -39
6 -12 6 -18 -1 -18 -14 0 -13 -53 2 -68 7 -7 8 -12 2 -12 -5 0 -10 -9 -11 -19
-1 -14 3 -18 14 -14 11 4 14 2 9 -5 -3 -6 2 -16 13 -21 11 -6 22 -20 26 -31 5
-16 17 -20 68 -22 50 -3 43 -4 -41 -8 l-102 -5 0 273 0 272 120 0 c66 0 120
-3 120 -7z m875 -3 c25 -11 -1 -11 -35 0 -20 6 -21 8 -5 8 11 0 29 -3 40 -8z
m1525 -4 c0 -9 -30 -14 -35 -6 -4 6 3 10 14 10 12 0 21 -2 21 -4z m-2135 -16
c-28 -12 -37 -12 -30 0 3 6 16 10 28 9 21 0 21 -1 2 -9z m-5535 -16 c0 -9 -9
-55 -20 -103 -10 -47 -37 -176 -60 -286 -22 -110 -49 -240 -60 -290 -10 -49
-32 -154 -47 -232 -26 -134 -43 -178 -43 -115 0 43 -69 374 -166 797 -19 82
-31 152 -26 156 4 4 59 16 122 28 63 12 153 31 200 41 107 23 100 23 100 4z
m1319 10 l31 -6 0 -1319 0 -1319 125 0 c104 0 125 -2 125 -15 0 -8 5 -15 11
-15 7 0 8 -5 3 -12 -5 -7 -9 -53 -9 -103 l0 -90 365 0 365 0 0 -25 c0 -24 -3
-25 -95 -36 -52 -6 -185 -19 -295 -28 -110 -10 -270 -24 -355 -32 -205 -19
-238 -18 -277 6 -43 26 -78 82 -172 275 -95 195 -171 365 -263 590 -137 336
-160 407 -148 460 9 36 156 607 204 790 64 240 227 850 232 868 4 14 17 17 63
17 32 0 73 -3 90 -6z m2825 -929 c3 -506 5 -1099 6 -1317 l0 -398 125 0 124 0
3 -117 3 -118 298 1 c163 0 296 -2 295 -5 -23 -48 -110 -159 -140 -178 l-38
-26 -138 17 c-75 10 -186 26 -247 36 -249 43 -398 56 -1015 90 -102 6 -193 13
-203 16 -12 4 -17 13 -15 27 l3 22 390 -4 390 -4 0 401 c0 350 -2 401 -15 400
-8 -1 -59 0 -112 0 l-98 2 0 125 0 125 -261 0 c-215 0 -260 2 -256 13 3 8 8
81 12 163 3 82 8 159 11 171 l4 23 230 -4 230 -4 0 354 0 353 -112 3 -113 3
-3 123 -3 122 -89 0 -90 0 7 148 c3 81 9 158 13 172 l6 25 292 3 292 2 0 70 0
69 43 5 c31 5 145 12 164 11 1 0 4 -414 7 -920z m2307 890 l34 -16 -35 7 c-19
4 -44 10 -55 15 -19 7 -19 8 1 8 12 1 37 -6 55 -14z m-4190 -41 c14 -15 18
-23 8 -19 -13 5 -18 -3 -22 -32 -11 -65 -8 -271 4 -279 8 -4 8 -9 0 -17 -15
-15 -14 -27 3 -27 21 0 31 -21 15 -31 -10 -6 -8 -9 9 -9 16 0 22 6 23 23 0 21
1 21 9 2 14 -33 12 -35 -35 -35 l-45 0 0 225 c0 124 1 225 3 225 2 0 14 -11
28 -26z m3890 -15 c19 -6 48 -17 64 -25 30 -14 30 -14 -25 -13 -86 1 -110 8
-110 30 0 22 20 24 71 8z m224 -39 c3 -5 28 -10 54 -10 51 0 422 -72 601 -116
314 -78 646 -181 662 -206 4 -7 8 -321 8 -698 0 -545 -3 -690 -13 -710 -34
-65 -336 -438 -519 -641 -193 -215 -236 -253 -304 -272 -66 -19 -139 -24 -97
-7 l22 9 0 351 -1 350 -114 0 -114 0 0 125 0 125 -320 0 -320 0 5 23 c4 20 30
198 42 295 3 23 11 42 17 42 6 1 131 1 279 0 l267 -1 0 356 0 355 -109 0 c-91
0 -110 3 -115 16 -3 9 -3 65 0 125 l7 109 -56 0 c-82 0 -90 5 -71 42 9 17 27
60 41 97 44 119 95 220 115 227 10 3 16 10 13 15 -4 5 -2 9 4 9 5 0 13 -4 16
-10z m-145 -30 c0 -5 -22 -70 -49 -142 -27 -73 -52 -143 -56 -156 -5 -19 -39
-42 -61 -42 -7 0 -4 315 4 327 4 7 38 14 77 16 39 1 73 4 78 5 4 1 7 -2 7 -8z
m-9743 -14 c3 -3 20 -78 39 -168 33 -159 56 -253 149 -603 54 -206 56 -228 16
-245 -47 -19 -61 -9 -103 70 -21 41 -64 121 -93 178 -103 195 -335 724 -335
764 0 12 27 14 161 12 89 -2 163 -5 166 -8z m6767 -146 c0 -85 -3 -163 -7
-173 -6 -16 -35 -17 -407 -17 l-400 0 0 144 c0 79 3 158 6 175 l7 31 401 -2
401 -3 -1 -155z m2714 144 c10 -3 12 -41 10 -166 l-3 -163 -359 -3 c-211 -1
-364 2 -369 7 -5 5 -6 76 -2 175 l7 167 352 -7 c193 -3 357 -7 364 -10z m3712
2 c0 -15 -116 -334 -173 -476 -79 -197 -108 -261 -233 -507 -122 -240 -142
-275 -154 -268 -4 3 -15 28 -25 57 -37 117 -151 290 -250 383 l-54 50 5 220
c5 242 20 461 34 515 l9 35 421 0 c241 0 420 -4 420 -9z m-1081 -72 c9 6 -3
-81 -12 -91 -4 -3 -6 27 -6 68 1 41 4 62 6 46 2 -15 8 -25 12 -23z m2066 -114
c12 -20 80 -41 113 -36 33 5 44 -7 16 -18 -20 -8 -59 2 -106 25 -37 19 -57 39
-39 39 5 0 13 -5 16 -10z m-12654 -144 c-6 -22 -27 -116 -46 -208 -19 -91 -38
-174 -41 -183 -5 -12 -21 16 -50 87 -45 107 -80 238 -71 262 3 8 41 31 84 51
43 21 89 43 103 51 22 11 25 11 28 -3 2 -8 -1 -34 -7 -57z m4396 27 c-3 -10
-5 -4 -5 12 0 17 2 24 5 18 2 -7 2 -21 0 -30z m2737 12 c19 -15 19 -15 -1 -15
-11 0 -23 7 -27 15 -7 19 3 19 28 0z m3621 -322 c-5 -74 -11 -111 -17 -107
-11 7 -6 114 10 234 6 48 7 51 10 20 2 -19 1 -86 -3 -147z m-145 137 c-9 -16
-8 -20 5 -20 13 0 14 -4 4 -21 -8 -17 -8 -20 1 -14 9 6 10 -1 5 -26 -9 -41 -6
-36 -30 -41 -17 -2 -21 3 -23 36 -2 25 0 36 7 31 6 -3 11 1 11 9 0 8 -4 18
-10 21 -5 3 -10 11 -10 17 0 6 3 9 6 5 4 -3 13 0 21 8 20 21 26 19 13 -5z
m-5093 -157 c2 -15 5 -34 5 -40 1 -7 4 -13 7 -13 4 0 6 -45 6 -100 0 -56 -4
-100 -9 -100 -6 0 -5 -5 1 -11 7 -7 9 -25 6 -42 -5 -22 -3 -28 6 -23 9 6 9 2
-1 -13 -7 -12 -16 -21 -20 -21 -9 0 -5 -51 5 -67 7 -12 -41 -49 -51 -39 -3 3
1 7 9 8 8 1 -11 4 -41 8 l-55 7 58 1 57 2 0 242 c0 218 5 279 17 201z m2804
10 c1 -16 1 -31 0 -35 0 -5 5 -8 12 -8 8 0 7 -4 -3 -10 -11 -7 -11 -10 -2 -10
7 0 11 -4 8 -9 -3 -5 1 -14 9 -21 8 -7 15 -9 15 -4 0 5 5 1 11 -9 12 -20 4
-37 -17 -37 -14 0 -18 -18 -16 -80 1 -19 -4 -38 -11 -42 -9 -6 -9 -8 1 -8 6 0
12 -10 12 -22 0 -19 -2 -20 -11 -8 -9 13 -10 12 -5 -2 3 -10 9 -24 12 -32 3
-7 -2 -21 -11 -30 -13 -13 -14 -22 -6 -53 12 -42 9 -48 -16 -38 -10 4 -13 9
-8 11 6 3 9 89 7 239 -2 157 1 235 8 235 5 0 11 -12 11 -27z m-5719 -250 c-3
-16 -7 -22 -10 -15 -4 13 4 42 11 42 2 0 2 -12 -1 -27z m8336 -156 c88 -154
96 -317 23 -481 -20 -46 -106 -180 -151 -236 l-20 -25 0 460 0 459 54 -53 c29
-29 72 -85 94 -124z m-12057 34 c23 -63 79 -268 79 -291 -1 -35 -38 53 -95
225 -18 55 -36 113 -39 130 -7 29 -7 29 13 11 11 -10 30 -44 42 -75z m13330
63 c97 -40 294 -92 659 -175 260 -59 369 -92 385 -120 13 -20 -1 -18 -80 11
-101 37 -154 51 -340 94 -477 110 -665 166 -690 206 -9 14 -7 13 66 -16z
m-11305 -304 c66 -316 85 -406 119 -565 23 -105 72 -339 124 -590 l17 -80 53
0 c38 0 56 -4 61 -15 38 -79 57 -140 42 -140 -38 0 -615 633 -642 705 -7 19 0
68 30 203 21 97 48 230 59 296 12 65 31 159 42 210 14 59 22 127 23 193 1 123
0 126 72 -217z m3413 142 c-2 -24 -2 -25 -6 -4 -3 16 -9 22 -20 18 -8 -3 -21
-6 -29 -6 -8 0 -11 -6 -8 -15 4 -8 -1 -17 -10 -21 -14 -5 -16 -34 -16 -229 0
-260 3 -285 35 -285 16 0 26 8 33 28 l10 27 2 -25 c2 -24 3 -23 10 5 l8 30 1
-37 1 -36 -55 -4 -54 -3 -3 291 -3 291 53 1 c51 1 52 1 51 -26z m242 21 c-109
-3 -126 -6 -141 -23 -17 -20 -18 -20 -22 5 l-5 25 146 -2 146 -2 -124 -3z
m636 -9 c2 -6 -10 -9 -29 -7 -25 3 -29 2 -18 -6 12 -8 6 -11 -25 -12 -53 -2
-69 1 -73 12 -2 5 -10 9 -18 9 -9 0 -12 -4 -9 -10 3 -5 -3 -10 -14 -10 -14 0
-19 5 -15 15 4 11 28 15 92 17 105 4 105 4 109 -8z m116 6 c-12 -5 -26 -16
-31 -26 -8 -14 -9 -13 -9 9 0 24 3 27 31 26 28 0 29 -1 9 -9z m2136 6 c-3 -3
-94 -6 -203 -7 -179 -1 -197 -3 -193 -18 2 -9 -3 -23 -11 -30 -11 -11 -13 -34
-8 -120 8 -132 8 -125 0 -244 -6 -94 -5 -99 15 -104 11 -3 19 -8 17 -12 -3 -4
0 -13 5 -21 8 -13 10 -13 19 0 8 13 10 13 10 -2 0 -14 9 -17 45 -16 25 0 49
-3 53 -6 3 -4 -35 -6 -85 -5 l-92 2 -3 293 -3 294 219 0 c121 0 217 -2 215 -4z
m369 -26 c-25 -35 -32 -38 -25 -10 5 21 -16 29 -28 10 -8 -13 -96 -9 -92 5 5
13 49 22 115 24 l53 1 -23 -30z m281 26 c-9 -8 -99 -13 -99 -5 0 5 23 9 52 9
28 0 49 -2 47 -4z m159 -13 c-10 -2 -26 -2 -35 0 -10 3 -2 5 17 5 19 0 27 -2
18 -5z m-3371 -19 c-3 -3 -12 -4 -19 -1 -8 3 -5 6 6 6 11 1 17 -2 13 -5z m71
-1 c-10 -2 -26 -2 -35 0 -10 3 -2 5 17 5 19 0 27 -2 18 -5z m5623 -54 c-6 -16
-10 -18 -10 -7 -1 22 12 55 16 42 2 -6 -1 -22 -6 -35z m-10024 -11 c-3 -8 -6
-5 -6 6 -1 11 2 17 5 13 3 -3 4 -12 1 -19z m10020 -120 c-2 -18 -4 -4 -4 32 0
36 2 50 4 33 2 -18 2 -48 0 -65z m-8080 -11 c-5 -37 -37 -117 -37 -94 0 15 34
137 38 137 3 0 2 -19 -1 -43z m10791 18 c-3 -3 -9 2 -12 12 -6 14 -5 15 5 6 7
-7 10 -15 7 -18z m-8101 -20 c4 -3 -18 -328 -22 -342 -3 -10 -87 -13 -372 -13
l-369 0 1 178 0 177 35 6 c31 5 721 0 727 -6z m2541 0 c5 -4 -130 -297 -151
-327 l-18 -28 -166 0 -166 0 6 113 c4 61 7 142 7 179 l0 68 218 3 c197 2 262
1 270 -8z m152 -5 c0 -43 -33 -310 -40 -327 -9 -21 -16 -23 -100 -23 -49 0
-90 2 -90 4 0 3 10 21 22 42 12 20 45 88 74 151 68 147 79 163 109 163 14 0
25 -4 25 -10z m2697 -72 c-2 -13 -4 -5 -4 17 -1 22 1 32 4 23 2 -10 2 -28 0
-40z m-10060 10 c-3 -8 -6 -5 -6 6 -1 11 2 17 5 13 3 -3 4 -12 1 -19z m1909
-187 c-22 -77 -43 -163 -62 -246 -8 -38 -19 -74 -25 -79 -14 -15 -12 -7 37
182 26 98 49 188 52 202 3 14 7 19 10 11 2 -7 -3 -39 -12 -70z m11776 -146 c2
-19 -1 -36 -7 -38 -6 -3 -9 10 -7 34 5 48 9 49 14 4z m-11447 -205 c41 -105
171 -398 260 -585 98 -206 122 -259 135 -298 14 -46 6 -55 -77 -81 -122 -39
-207 -47 -332 -31 -64 8 -264 33 -446 55 -297 37 -611 83 -752 111 -52 10 -74
33 -52 53 9 8 10 8 6 0 -8 -14 693 -30 824 -19 l85 7 47 182 c71 275 205 781
213 806 5 15 14 -5 89 -200z m7840 30 c12 10 15 9 15 -3 0 -11 5 -14 18 -10
10 4 2 -9 -18 -30 -19 -20 -36 -37 -37 -37 -2 0 -2 44 -1 98 1 75 3 82 5 34 3
-54 6 -62 18 -52z m3595 101 c0 -6 -4 -13 -10 -16 -5 -3 -10 1 -10 9 0 9 5 16
10 16 6 0 10 -4 10 -9z m-3450 -35 c0 -3 -4 -8 -10 -11 -5 -3 -10 -1 -10 4 0
6 5 11 10 11 6 0 10 -2 10 -4z m3426 -38 c-3 -24 -5 -51 -5 -61 -1 -11 -5 -15
-13 -11 -7 5 -9 2 -5 -8 3 -9 -3 -25 -13 -36 -14 -14 -16 -22 -7 -31 8 -8 8
-11 0 -11 -6 0 -20 -16 -32 -35 -13 -22 -16 -35 -8 -35 6 0 1 -7 -11 -16 -12
-8 -20 -20 -17 -25 4 -5 1 -9 -6 -9 -7 0 -9 -3 -6 -6 3 -4 -5 -15 -18 -26 -14
-11 -23 -24 -20 -29 4 -5 -1 -9 -10 -9 -9 0 -19 -9 -22 -20 -3 -10 -14 -22
-24 -25 -10 -4 -19 -10 -19 -14 0 -5 -13 -14 -30 -21 -16 -7 -30 -16 -30 -21
0 -5 -5 -9 -10 -9 -6 0 -38 -18 -71 -40 -33 -22 -63 -40 -67 -40 -4 0 -27 -10
-52 -22 -53 -25 -71 -32 -126 -47 -77 -20 -70 -10 12 18 257 88 437 238 542
454 27 56 52 119 56 140 9 50 17 47 12 -5z m-4475 -255 c-1 -142 -5 -261 -9
-265 -22 -22 -497 -146 -510 -133 -8 7 -6 10 100 136 109 130 238 294 336 426
42 56 78 100 80 98 2 -2 3 -120 3 -262z m-7368 150 c-18 -76 -22 -87 -29 -81
-7 7 27 138 36 138 4 0 1 -26 -7 -57z m3442 -33 c3 -30 4 -82 3 -115 -1 -33
-1 -79 0 -102 1 -24 -2 -43 -8 -43 -6 0 -10 60 -10 162 0 164 5 196 15 98z
m2799 -44 c3 -47 0 -88 -5 -92 -5 -3 -9 36 -9 92 0 119 9 119 14 0z m-7887
-33 c29 -45 336 -427 431 -536 24 -27 41 -51 39 -53 -4 -5 -510 111 -567 130
-19 6 -35 16 -35 21 0 27 101 465 107 465 4 0 15 -12 25 -27z m1608 -35 c-4
-24 -11 -47 -16 -52 -5 -6 -9 -19 -9 -30 0 -10 -3 -16 -6 -13 -6 6 -2 25 23
120 9 34 15 16 8 -25z m8475 7 c0 -8 -9 -15 -20 -15 -11 0 -20 5 -20 11 0 6 7
8 16 5 8 -3 12 -2 9 4 -3 6 -1 10 4 10 6 0 11 -7 11 -15z m-10403 -37 c-3 -8
-6 -5 -6 6 -1 11 2 17 5 13 3 -3 4 -12 1 -19z m8200 -30 c-3 -8 -6 -5 -6 6 -1
11 2 17 5 13 3 -3 4 -12 1 -19z m-6316 -94 c-5 -21 -9 -30 -10 -19 -1 24 10
67 15 62 3 -2 0 -22 -5 -43z m8392 29 c-3 -10 -10 -23 -15 -30 -6 -7 -7 -16
-4 -21 3 -5 -3 -17 -14 -27 -11 -10 -20 -29 -20 -43 0 -14 -3 -23 -6 -19 -3 3
-6 21 -6 41 0 25 10 46 34 75 38 46 40 48 31 24z m-4863 -53 c0 -11 -4 -20
-10 -20 -5 0 -10 9 -10 20 0 11 5 20 10 20 6 0 10 -9 10 -20z m-3 -62 c-3 -8
-6 -5 -6 6 -1 11 2 17 5 13 3 -3 4 -12 1 -19z m4853 18 c0 -2 -7 -6 -15 -10
-8 -3 -15 -1 -15 4 0 6 7 10 15 10 8 0 15 -2 15 -4z m-10317 -81 c-7 -21 -13
-19 -13 6 0 11 4 18 10 14 5 -3 7 -12 3 -20z m10274 -37 c-3 -8 -6 -5 -6 6 -1
11 2 17 5 13 3 -3 4 -12 1 -19z m-13195 -12 c5 3 4 -4 -4 -15 -11 -18 -11 -23
0 -30 20 -12 -8 -31 -41 -27 -28 3 -49 15 -29 17 7 1 18 2 25 3 6 0 16 16 22
34 5 18 11 29 13 23 2 -6 8 -8 14 -5z m12396 -13 c45 -2 82 -8 82 -11 0 -14
-146 -250 -205 -331 -154 -214 -390 -482 -539 -612 -50 -44 -161 -127 -247
-183 -233 -155 -262 -167 -329 -134 -33 17 -51 37 -88 101 -51 88 -115 162
-186 217 -25 19 -45 37 -46 40 0 12 269 287 365 372 131 117 394 292 570 378
118 58 259 111 455 168 19 6 46 8 60 5 14 -3 62 -8 108 -10z m-4016 -20 c-3
-16 -7 -23 -9 -16 -3 9 -72 12 -275 13 -149 0 -274 2 -276 5 -3 3 119 5 271 5
173 0 278 4 282 10 10 17 12 11 7 -17z m-3588 3 c-4 -11 -17 -13 -53 -9 -25 3
-63 1 -83 -5 -24 -7 -64 -6 -124 2 l-89 11 175 5 c96 3 176 7 177 8 1 1 0 -4
-3 -12z m4951 1 c-4 -8 -20 -11 -53 -8 l-47 5 40 7 c63 10 65 10 60 -4z m1435
0 c0 -11 -66 -14 -352 -14 -194 0 -368 -4 -387 -8 -23 -5 -31 -4 -27 4 5 7 -3
9 -26 5 -24 -5 -30 -4 -23 5 8 7 131 12 410 14 220 1 401 3 403 5 1 1 2 -4 2
-11z m-11735 -7 c-44 -11 -67 -11 -60 0 3 6 25 9 48 9 40 -1 40 -2 12 -9z
m4559 -5 c-4 -8 -10 -12 -15 -9 -14 8 -10 24 6 24 9 0 12 -6 9 -15z m193 9
c-3 -3 -12 -4 -19 -1 -8 3 -5 6 6 6 11 1 17 -2 13 -5z m181 -1 c-10 -2 -28 -2
-40 0 -13 2 -5 4 17 4 22 1 32 -1 23 -4z m49 1 c-3 -3 -12 -4 -19 -1 -8 3 -5
6 6 6 11 1 17 -2 13 -5z m1861 -1 c-10 -2 -28 -2 -40 0 -13 2 -5 4 17 4 22 1
32 -1 23 -4z m670 0 c-10 -2 -18 -9 -18 -15 0 -6 -8 -7 -22 -2 -13 4 -104 10
-203 14 l-180 6 220 1 c121 0 212 -1 203 -4z m760 -5 c-3 -7 -24 -14 -47 -16
-33 -3 -41 -1 -36 9 6 9 2 10 -16 5 -13 -4 -37 -8 -54 -10 -25 -3 -25 -2 -5 3
14 3 -27 8 -90 11 -107 6 -102 6 68 8 141 2 183 -1 180 -10z m2552 -3 c0 -18
-16 -20 -24 -2 -5 10 -7 10 -12 0 -7 -15 -44 -18 -44 -4 0 6 -15 12 -32 14
-18 2 0 5 40 5 58 2 72 -1 72 -13z m2550 -5 c-25 -20 -66 -28 -56 -11 4 5 -4
7 -16 3 -14 -3 -19 -2 -14 6 8 13 -77 17 -131 6 l-30 -6 1 -96 1 -97 30 2 c29
2 27 -1 -40 -63 -141 -131 -315 -262 -315 -239 0 8 20 45 31 59 63 79 121 168
194 298 27 49 63 104 81 123 l32 35 128 0 129 0 -25 -20z m248 13 c-10 -2 -18
-9 -18 -14 0 -5 -9 -9 -20 -9 -22 0 -27 15 -7 23 6 3 23 5 37 5 16 0 19 -2 8
-5z m-13165 -10 c-19 -3 -33 -10 -33 -18 0 -9 -12 -12 -42 -10 -24 1 -76 3
-116 4 -43 0 -71 5 -67 10 3 5 -9 12 -27 14 -18 2 46 4 142 4 96 0 160 -2 143
-4z m4142 -3 c3 -5 -1 -10 -9 -10 -9 0 -16 5 -16 10 0 6 4 10 9 10 6 0 13 -4
16 -10z m3302 -6 c-3 -3 -12 -4 -19 -1 -8 3 -5 6 6 6 11 1 17 -2 13 -5z m5657
-28 c-5 -13 -34 -31 -34 -21 0 5 30 35 35 35 3 0 2 -6 -1 -14z m-44 -51 c0 -8
-7 -15 -16 -15 -14 0 -14 3 -4 15 7 8 14 15 16 15 2 0 4 -7 4 -15z m-9637 -50
c75 -20 212 -51 304 -70 121 -25 184 -43 232 -67 76 -38 169 -126 225 -211 75
-115 145 -278 133 -310 -3 -9 -28 -27 -54 -41 -58 -30 -110 -77 -193 -175 -64
-74 -119 -110 -170 -111 -41 0 -354 187 -570 342 -209 150 -667 548 -655 569
4 5 121 9 281 9 l274 0 0 49 c0 50 10 63 40 55 8 -2 77 -19 153 -39z m9367 25
c0 -5 -4 -10 -10 -10 -5 0 -10 5 -10 10 0 6 5 10 10 10 6 0 10 -4 10 -10z
m-35 -43 c-10 -8 -27 -14 -38 -13 -23 1 -36 26 -14 26 8 0 20 7 27 16 12 13
15 13 29 0 14 -14 13 -17 -4 -29z m275 29 c0 -2 -7 -7 -16 -10 -8 -3 -12 -2
-9 4 6 10 25 14 25 6z m-8835 -46 c3 -5 1 -10 -4 -10 -6 0 -11 5 -11 10 0 6 2
10 4 10 3 0 8 -4 11 -10z m8802 -6 c-3 -3 -12 -4 -19 -1 -8 3 -5 6 6 6 11 1
17 -2 13 -5z m-5205 -40 c3 -2 4 -13 1 -24 -5 -19 -14 -20 -287 -20 -241 0
-285 2 -304 16 -19 13 -21 19 -11 31 11 12 53 13 303 7 160 -3 294 -8 298 -10z
m2522 8 c2 -4 -10 -30 -27 -58 -45 -76 -83 -91 -270 -108 -247 -24 -337 -29
-337 -21 0 4 15 31 34 59 18 28 44 70 57 93 l24 43 257 0 c141 0 259 -3 262
-8z m664 1 c46 -3 79 -10 75 -14 -14 -14 -660 -106 -670 -95 -2 1 3 26 9 54
l13 52 215 3 c118 1 229 3 245 5 17 1 67 -1 113 -5z m512 -32 c0 -18 -93 -104
-334 -306 -206 -174 -309 -255 -324 -255 -22 0 -187 61 -362 134 -172 71 -173
71 -150 157 25 93 44 100 430 164 118 19 265 44 325 55 61 11 153 27 205 35
52 8 113 18 135 24 62 14 75 13 75 -8z m-8865 -39 c56 -51 356 -306 435 -370
162 -129 312 -238 525 -380 126 -85 241 -164 253 -176 39 -34 69 -106 76 -178
4 -38 3 -68 -1 -68 -20 0 -268 158 -393 249 -165 122 -365 297 -582 514 -175
173 -408 424 -408 439 0 4 12 8 28 8 17 0 41 -13 67 -38z m1854 -78 c108 -14
270 -36 361 -49 91 -13 216 -29 278 -36 65 -8 111 -17 109 -23 -4 -12 -158
-72 -325 -126 -193 -62 -335 -84 -397 -60 -73 28 -294 287 -268 314 10 9 33 8
242 -20z m3280 19 c22 -6 23 -9 18 -67 -10 -107 20 -97 -304 -94 -316 3 -303
0 -303 74 0 27 7 51 21 68 l20 26 262 0 c144 0 273 -3 286 -7z m576 -23 c61
-5 178 -14 260 -20 165 -13 344 -36 353 -45 13 -13 -19 -23 -113 -33 -249 -28
-380 -35 -660 -36 l-300 -1 4 55 c2 30 7 65 12 79 l10 24 162 -7 c89 -4 212
-11 272 -16z m-1281 -8 c11 -33 13 -100 5 -114 -10 -15 -71 -15 -474 1 -304
13 -415 21 -415 31 0 16 54 29 201 49 168 24 454 48 591 50 76 1 87 -1 92 -17z
m-1164 -152 c51 -7 95 -18 110 -29 14 -9 67 -87 118 -172 118 -195 284 -445
381 -574 61 -81 267 -334 290 -355 124 -118 421 -431 417 -439 -38 -61 -733
178 -1206 414 -386 192 -758 428 -1155 734 -105 80 -175 154 -175 182 0 24 42
45 175 86 461 142 765 187 1045 153z m3975 -52 c147 -40 230 -73 252 -100 39
-47 -92 -395 -224 -595 -67 -102 -184 -228 -269 -288 -138 -99 -488 -240 -954
-386 -239 -75 -532 -142 -596 -137 l-39 3 50 29 c96 57 354 261 550 437 249
223 534 536 764 839 131 173 188 240 214 249 25 9 53 4 252 -51z m-383 42 c5
0 1 -11 -9 -24 -424 -558 -727 -881 -1098 -1171 -149 -117 -441 -302 -622
-394 -51 -25 -91 -27 -100 -4 -4 9 12 132 36 272 63 385 79 506 137 1040 18
169 30 207 71 215 38 7 349 23 728 37 171 6 425 16 565 23 140 7 261 12 268
10 8 -2 18 -4 24 -4z m-2536 -46 c161 -10 147 25 184 -470 16 -219 31 -448 34
-509 4 -60 9 -151 12 -201 10 -156 -21 -149 -221 51 -241 242 -504 588 -690
910 -61 106 -115 208 -115 219 0 8 653 8 796 0z m708 -22 c34 -5 52 -13 60
-27 5 -11 19 -33 29 -48 17 -26 17 -37 7 -135 -6 -59 -17 -170 -25 -246 -25
-236 -53 -455 -80 -612 -15 -82 -37 -216 -51 -298 -13 -81 -27 -152 -30 -157
-8 -14 -87 -10 -135 6 -56 20 -96 58 -121 115 -43 98 -81 450 -129 1188 -11
171 -11 183 6 202 17 19 30 20 219 19 111 0 223 -4 250 -7z m2817 -138 c157
-54 206 -79 225 -116 21 -40 18 -53 -20 -85 -57 -51 -680 -433 -705 -433 -15
0 -9 20 26 100 14 30 60 136 103 235 142 328 151 344 206 345 17 0 91 -21 165
-46z m-5873 -98 c20 -13 105 -77 189 -142 391 -307 766 -548 1198 -774 237
-123 694 -322 798 -346 15 -3 27 -10 27 -15 0 -33 -461 36 -874 131 -400 92
-585 148 -719 217 -219 113 -381 295 -637 718 -95 155 -115 201 -100 221 19
21 76 17 118 -10z m-183 -112 c64 -79 445 -652 445 -669 0 -18 -20 -10 -325
123 -190 83 -488 250 -505 282 -24 44 46 146 164 239 128 101 156 104 221 25z
m6532 -39 c106 -53 203 -189 203 -285 0 -91 -37 -122 -272 -232 -351 -163
-728 -308 -1003 -385 -88 -25 -196 -56 -240 -68 -95 -27 -103 -20 -54 52 81
119 154 206 251 298 117 112 209 179 343 250 119 64 244 143 390 249 210 151
278 173 382 121z m-6832 -368 c86 -54 298 -159 521 -258 230 -101 409 -199
522 -284 108 -82 134 -115 90 -115 -46 0 -205 31 -313 62 -271 75 -541 219
-738 392 -93 82 -191 202 -203 250 -6 27 -6 28 17 15 13 -6 60 -35 104 -62z
m6765 -276 c0 -15 -133 -98 -257 -160 -206 -102 -423 -178 -658 -231 -55 -12
-129 -29 -165 -37 -83 -19 -209 -29 -195 -16 6 5 51 22 100 37 296 91 654 217
930 328 231 93 245 97 245 79z m-1320 -105 c0 -22 -110 -155 -166 -202 -27
-23 -69 -54 -93 -69 -98 -61 -289 -108 -486 -120 -60 -4 -166 -13 -235 -21
-211 -24 -229 -17 -80 31 231 75 919 333 1000 376 43 22 60 24 60 5z m-4005
-236 c83 -23 264 -71 404 -106 140 -35 260 -69 265 -75 15 -15 -276 -3 -409
18 -185 28 -351 94 -438 175 l-42 39 35 -4 c19 -2 103 -23 185 -47z m2190
-421 c58 -19 115 -59 115 -79 0 -14 -43 -20 -167 -27 -108 -5 -123 -4 -129 11
-9 23 4 83 22 101 22 21 82 19 159 -6z"/>
<path d="M1420 8026 c0 -2 7 -7 16 -10 8 -3 12 -2 9 4 -6 10 -25 14 -25 6z"/>
<path d="M13456 7082 c-2 -4 4 -9 15 -9 10 -1 19 2 19 8 0 11 -27 12 -34 1z"/>
<path d="M12838 6733 c6 -2 18 -2 25 0 6 3 1 5 -13 5 -14 0 -19 -2 -12 -5z"/>
<path d="M2168 5323 c7 -3 16 -2 19 1 4 3 -2 6 -13 5 -11 0 -14 -3 -6 -6z"/>
<path d="M2223 5323 c15 -2 37 -2 50 0 12 2 0 4 -28 4 -27 0 -38 -2 -22 -4z"/>
</g>
</svg>
