<svg width="20" height="17" viewBox="0 0 20 17" fill="none" xmlns="http://www.w3.org/2000/svg">
<path d="M7.6 17C7.82091 17 8 16.8209 8 16.6V11.4C8 11.1791 8.17909 11 8.4 11H11.6C11.8209 11 12 11.1791 12 11.4V16.6C12 16.8209 12.1791 17 12.4 17H16.6C16.8209 17 17 16.8209 17 16.6V9.4C17 9.17909 17.1791 9 17.4 9H18.9576C19.3242 9 19.4977 8.54792 19.2252 8.30268L10.2676 0.240828C10.1155 0.103918 9.88454 0.103918 9.73241 0.240827L0.774798 8.30268C0.502311 8.54792 0.67579 9 1.04238 9H2.6C2.82091 9 3 9.17909 3 9.4V16.6C3 16.8209 3.17909 17 3.4 17H7.6Z" fill="#8E8E93"/>
</svg>
