<svg width="18" height="18" viewBox="0 0 18 18" fill="none" xmlns="http://www.w3.org/2000/svg">
<path d="M5.4 14.4C4.41 14.4 3.609 15.21 3.609 16.2C3.609 17.19 4.41 18 5.4 18C6.39 18 7.2 17.19 7.2 16.2C7.2 15.21 6.39 14.4 5.4 14.4ZM0.5 0C0.223858 0 0 0.223858 0 0.5V1.3C0 1.57614 0.223858 1.8 0.5 1.8H1.48376C1.67689 1.8 1.85276 1.91123 1.93552 2.08573L4.93028 8.39967C4.99917 8.54492 4.99402 8.71444 4.91644 8.85524L3.825 10.836C3.681 11.088 3.6 11.385 3.6 11.7C3.6 12.69 4.41 13.5 5.4 13.5H15.7C15.9761 13.5 16.2 13.2761 16.2 13V12.2C16.2 11.9239 15.9761 11.7 15.7 11.7H5.778C5.67052 11.7 5.58268 11.628 5.55919 11.5286C5.55093 11.4936 5.5574 11.4574 5.56611 11.4226C5.57533 11.3857 5.58931 11.3501 5.60769 11.3169L6.24737 10.1583C6.33537 9.99895 6.50303 9.9 6.68508 9.9H13.095C13.77 9.9 14.364 9.531 14.67 8.973L17.892 3.132C17.964 3.006 18 2.853 18 2.7C18 2.205 17.595 1.8 17.1 1.8H4.10647C3.9127 1.8 3.73638 1.68805 3.65396 1.51268L3.07804 0.287319C2.99562 0.111955 2.8193 0 2.62553 0H0.5ZM14.4 14.4C13.41 14.4 12.609 15.21 12.609 16.2C12.609 17.19 13.41 18 14.4 18C15.39 18 16.2 17.19 16.2 16.2C16.2 15.21 15.39 14.4 14.4 14.4Z" fill="#8E8E93"/>
</svg>
